HIERARCHY
ROOT hip
{
  OFFSET 0 90.174 2.4664
  CHANNELS 6 Xposition Yposition Zposition Zrotation Xrotation Yrotation
  JOINT abdomen
  {
    OFFSET 0 -1.186 -1.5018
    CHANNELS 6 Xposition Yposition Zposition Zrotation Xrotation Yrotation
    JOINT abdomen2
    {
      OFFSET 0 9.964 0.2134
      CHANNELS 6 Xposition Yposition Zposition Zrotation Xrotation Yrotation
      JOINT chest
      {
        OFFSET 0 13.134 -3.2573
        CHANNELS 6 Xposition Yposition Zposition Zrotation Xrotation Yrotation
        JOINT neck
        {
          OFFSET 0 20.686 -1.6905
          CHANNELS 6 Xposition Yposition Zposition Zrotation Xrotation Yrotation
          JOINT head
          {
            OFFSET 0 7.238 -0.1237
            CHANNELS 6 Xposition Yposition Zposition Zrotation Xrotation Yrotation
            End Site
            {
              OFFSET 0 0 0
            }
          }
        }
        JOINT lCollar
        {
          OFFSET 1.7069 20.075 5.0056
          CHANNELS 6 Xposition Yposition Zposition Zrotation Xrotation Yrotation
          JOINT lShldr
          {
            OFFSET 13.6458 -0.047 -4.849
            CHANNELS 6 Xposition Yposition Zposition Zrotation Xrotation Yrotation
            JOINT lForeArm
            {
              OFFSET 28.3255 -0.9759 2.2888
              CHANNELS 6 Xposition Yposition Zposition Zrotation Xrotation Yrotation
              JOINT lHand
              {
                OFFSET 22.1583 -0.53 10.8316
                CHANNELS 6 Xposition Yposition Zposition Zrotation Xrotation Yrotation
                JOINT lThumb1
                {
                  OFFSET 0.786 0.112 2.5817
                  CHANNELS 6 Xposition Yposition Zposition Zrotation Xrotation Yrotation
                  JOINT lThumb2
                  {
                    OFFSET 0.3601 -0.878 4.2331
                    CHANNELS 6 Xposition Yposition Zposition Zrotation Xrotation Yrotation
                    JOINT lThumb2_End
                    {
                      OFFSET 1.8127 -1.216 2.2227
                      CHANNELS 6 Xposition Yposition Zposition Zrotation Xrotation Yrotation
                      End Site
                      {
                        OFFSET 0.0181 -0.0122 0.0222
                      }
                    }
                  }
                }
                JOINT lCarpal1
                {
                  OFFSET 0.9571 1.114 1.7695
                  CHANNELS 6 Xposition Yposition Zposition Zrotation Xrotation Yrotation
                  JOINT lIndex1
                  {
                    OFFSET 4.1246 0.487 4.1451
                    CHANNELS 6 Xposition Yposition Zposition Zrotation Xrotation Yrotation
                    JOINT lIndex2
                    {
                      OFFSET 3.4052 -1.454 2.7682
                      CHANNELS 6 Xposition Yposition Zposition Zrotation Xrotation Yrotation
                      JOINT lIndex2_End
                      {
                        OFFSET 1.4531 -1.795 1.2713
                        CHANNELS 6 Xposition Yposition Zposition Zrotation Xrotation Yrotation
                        End Site
                        {
                          OFFSET 0.0145 -0.0179 0.0127
                        }
                      }
                    }
                  }
                  JOINT lMid1
                  {
                    OFFSET 5.6954 0.21 2.1184
                    CHANNELS 6 Xposition Yposition Zposition Zrotation Xrotation Yrotation
                    JOINT lMid2
                    {
                      OFFSET 3.9766 -1.54 2.3863
                      CHANNELS 6 Xposition Yposition Zposition Zrotation Xrotation Yrotation
                      JOINT lMid2_End
                      {
                        OFFSET 1.4042 -1.926 1.125
                        CHANNELS 6 Xposition Yposition Zposition Zrotation Xrotation Yrotation
                        End Site
                        {
                          OFFSET 0.014 -0.0193 0.0113
                        }
                      }
                    }
                  }
                }
                JOINT lCarpal2
                {
                  OFFSET 2.0956 0.66 -0.3894
                  CHANNELS 6 Xposition Yposition Zposition Zrotation Xrotation Yrotation
                  JOINT lRing1
                  {
                    OFFSET 5.0395 -0.09 2.4971
                    CHANNELS 6 Xposition Yposition Zposition Zrotation Xrotation Yrotation
                    JOINT lRing2
                    {
                      OFFSET 3.7921 -1.552 1.4806
                      CHANNELS 6 Xposition Yposition Zposition Zrotation Xrotation Yrotation
                      JOINT lRing2_End
                      {
                        OFFSET 1.4655 -1.808 0.9609
                        CHANNELS 6 Xposition Yposition Zposition Zrotation Xrotation Yrotation
                        End Site
                        {
                          OFFSET 0.0147 -0.0181 0.0096
                        }
                      }
                    }
                  }
                  JOINT lPinky1
                  {
                    OFFSET 4.9141 -1.269 0.3591
                    CHANNELS 6 Xposition Yposition Zposition Zrotation Xrotation Yrotation
                    JOINT lPinky2
                    {
                      OFFSET 3.1477 -1.685 0.8462
                      CHANNELS 6 Xposition Yposition Zposition Zrotation Xrotation Yrotation
                      JOINT lPinky2_End
                      {
                        OFFSET 0.8055 -1.585 0.7955
                        CHANNELS 6 Xposition Yposition Zposition Zrotation Xrotation Yrotation
                        End Site
                        {
                          OFFSET 0.0081 -0.0158 0.008
                        }
                      }
                    }
                  }
                }
              }
            }
          }
        }
        JOINT rCollar
        {
          OFFSET -1.7069 20.075 5.0056
          CHANNELS 6 Xposition Yposition Zposition Zrotation Xrotation Yrotation
          JOINT rShldr
          {
            OFFSET -13.6458 -0.047 -4.849
            CHANNELS 6 Xposition Yposition Zposition Zrotation Xrotation Yrotation
            JOINT rForeArm
            {
              OFFSET -28.3255 -0.9759 2.2888
              CHANNELS 6 Xposition Yposition Zposition Zrotation Xrotation Yrotation
              JOINT rHand
              {
                OFFSET -22.1583 -0.53 10.8316
                CHANNELS 6 Xposition Yposition Zposition Zrotation Xrotation Yrotation
                JOINT rThumb1
                {
                  OFFSET -0.786 0.112 2.5817
                  CHANNELS 6 Xposition Yposition Zposition Zrotation Xrotation Yrotation
                  JOINT rThumb2
                  {
                    OFFSET -0.3601 -0.878 4.2331
                    CHANNELS 6 Xposition Yposition Zposition Zrotation Xrotation Yrotation
                    JOINT rThumb2_End
                    {
                      OFFSET -1.8127 -1.216 2.2227
                      CHANNELS 6 Xposition Yposition Zposition Zrotation Xrotation Yrotation
                      End Site
                      {
                        OFFSET -0.0181 -0.0122 0.0222
                      }
                    }
                  }
                }
                JOINT rCarpal1
                {
                  OFFSET -0.9571 1.114 1.7695
                  CHANNELS 6 Xposition Yposition Zposition Zrotation Xrotation Yrotation
                  JOINT rIndex1
                  {
                    OFFSET -4.1246 0.487 4.1451
                    CHANNELS 6 Xposition Yposition Zposition Zrotation Xrotation Yrotation
                    JOINT rIndex2
                    {
                      OFFSET -3.4052 -1.454 2.7682
                      CHANNELS 6 Xposition Yposition Zposition Zrotation Xrotation Yrotation
                      JOINT rIndex2_End
                      {
                        OFFSET -1.4531 -1.795 1.2713
                        CHANNELS 6 Xposition Yposition Zposition Zrotation Xrotation Yrotation
                        End Site
                        {
                          OFFSET -0.0145 -0.018 0.0127
                        }
                      }
                    }
                  }
                  JOINT rMid1
                  {
                    OFFSET -5.6954 0.21 2.1184
                    CHANNELS 6 Xposition Yposition Zposition Zrotation Xrotation Yrotation
                    JOINT rMid2
                    {
                      OFFSET -3.9766 -1.54 2.3863
                      CHANNELS 6 Xposition Yposition Zposition Zrotation Xrotation Yrotation
                      JOINT rMid2_End
                      {
                        OFFSET -1.4042 -1.926 1.125
                        CHANNELS 6 Xposition Yposition Zposition Zrotation Xrotation Yrotation
                        End Site
                        {
                          OFFSET -0.014 -0.0193 0.0113
                        }
                      }
                    }
                  }
                }
                JOINT rCarpal2
                {
                  OFFSET -2.0956 0.66 -0.3894
                  CHANNELS 6 Xposition Yposition Zposition Zrotation Xrotation Yrotation
                  JOINT rRing1
                  {
                    OFFSET -5.0395 -0.09 2.4971
                    CHANNELS 6 Xposition Yposition Zposition Zrotation Xrotation Yrotation
                    JOINT rRing2
                    {
                      OFFSET -3.7921 -1.552 1.4806
                      CHANNELS 6 Xposition Yposition Zposition Zrotation Xrotation Yrotation
                      JOINT rRing2_End
                      {
                        OFFSET -1.4655 -1.808 0.9609
                        CHANNELS 6 Xposition Yposition Zposition Zrotation Xrotation Yrotation
                        End Site
                        {
                          OFFSET -0.0147 -0.0181 0.0096
                        }
                      }
                    }
                  }
                  JOINT rPinky1
                  {
                    OFFSET -4.9141 -1.269 0.3592
                    CHANNELS 6 Xposition Yposition Zposition Zrotation Xrotation Yrotation
                    JOINT rPinky2
                    {
                      OFFSET -3.1477 -1.685 0.8462
                      CHANNELS 6 Xposition Yposition Zposition Zrotation Xrotation Yrotation
                      JOINT rPinky2_End
                      {
                        OFFSET -0.8055 -1.585 0.7955
                        CHANNELS 6 Xposition Yposition Zposition Zrotation Xrotation Yrotation
                        End Site
                        {
                          OFFSET -0.0081 -0.0158 0.008
                        }
                      }
                    }
                  }
                }
              }
            }
          }
        }
      }
    }
  }
  JOINT lThigh
  {
    OFFSET 8.367 -8.2066 0.5982
    CHANNELS 6 Xposition Yposition Zposition Zrotation Xrotation Yrotation
    JOINT lShin
    {
      OFFSET 2.1923 -43.463 -0.4932
      CHANNELS 6 Xposition Yposition Zposition Zrotation Xrotation Yrotation
      JOINT lFoot
      {
        OFFSET 0.7333 -45.8593 -2.6451
        CHANNELS 6 Xposition Yposition Zposition Zrotation Xrotation Yrotation
        End Site
        {
          OFFSET 2.6618 -4.2699 12.3931
        }
      }
    }
  }
  JOINT rThigh
  {
    OFFSET -8.367 -8.2066 0.5982
    CHANNELS 6 Xposition Yposition Zposition Zrotation Xrotation Yrotation
    JOINT rShin
    {
      OFFSET -2.1923 -43.463 -0.4931
      CHANNELS 6 Xposition Yposition Zposition Zrotation Xrotation Yrotation
      JOINT rFoot
      {
        OFFSET -0.7333 -45.8593 -2.6451
        CHANNELS 6 Xposition Yposition Zposition Zrotation Xrotation Yrotation
        End Site
        {
          OFFSET -2.6618 -4.2699 12.3931
        }
      }
    }
  }
}
MOTION
Frames:	4
Frame Time:	0.0333333
0 90.174 2.4664 0 0 -0 0 -1.186 -1.5018 0 0 -0 0 9.964 0.2134 0 0 -0 0 13.134 -3.2573 0 0 -0 0 20.686 -1.6905 0 0 -0 0 7.238 -0.1237 0 0 -0 1.7069 20.075 5.0056 0 0 -0 13.6458 -0.047 -4.849 1.66051 0.0835086 5.75766 28.3255 -0.9759 2.2888 -0.0175111 0.895433 15.7816 22.1583 -0.53 10.8316 7.95139e-016 -1.98785e-016 -0 0.786 0.112 2.5817 5.46658e-016 -3.97569e-016 -0 0.3601 -0.878 4.2331 5.96354e-016 0 -0 1.8127 -1.216 2.2227 3.97569e-016 1.98785e-016 9.54166e-015 0.9571 1.114 1.7695 1.49089e-016 -3.97569e-016 -0 4.1246 0.487 4.1451 6.4605e-016 0 3.18055e-015 3.4052 -1.454 2.7682 5.96354e-016 0 3.18055e-015 1.4531 -1.795 1.2713 8.94531e-016 -1.98785e-016 6.36111e-015 5.6954 0.21 2.1184 6.4605e-016 0 3.18055e-015 3.9766 -1.54 2.3863 5.96354e-016 0 3.18055e-015 1.4042 -1.926 1.125 8.94531e-016 -1.98785e-016 6.36111e-015 2.0956 0.66 -0.3894 1.49089e-016 -3.97569e-016 -0 5.0395 -0.09 2.4971 6.4605e-016 0 3.18055e-015 3.7921 -1.552 1.4806 5.96354e-016 0 3.18055e-015 1.4655 -1.808 0.9609 8.94531e-016 -1.98785e-016 6.36111e-015 4.9141 -1.269 0.3591 6.4605e-016 0 3.18055e-015 3.1477 -1.685 0.8462 5.96354e-016 0 3.18055e-015 0.8055 -1.585 0.7955 8.94531e-016 -1.98785e-016 6.36111e-015 -1.7069 20.075 5.0056 0 0 -0 -13.6458 -0.047 -4.849 -1.4496 0.0636048 -5.0245 -28.3255 -0.9759 2.2888 -1.74811 1.20616 -16.8394 -22.1583 -0.53 10.8316 -1.19271e-015 1.98785e-016 -3.18055e-015 -0.786 0.112 2.5817 -3.97569e-016 1.98785e-016 -3.18055e-015 -0.3601 -0.878 4.2331 -2.98177e-016 1.98785e-016 -3.18055e-015 -1.8127 -1.216 2.2227 -2.98177e-016 3.97569e-016 -0 -0.9571 1.114 1.7695 4.96962e-016 0 -6.36111e-015 -4.1246 0.487 4.1451 -9.93923e-017 3.97569e-016 -0 -3.4052 -1.454 2.7682 -8.94531e-016 5.96354e-016 -0 -1.4531 -1.795 1.2713 -3.97569e-016 3.97569e-016 -0 -5.6954 0.21 2.1184 -9.93923e-017 3.97569e-016 -0 -3.9766 -1.54 2.3863 -8.94531e-016 5.96354e-016 -0 -1.4042 -1.926 1.125 -3.97569e-016 3.97569e-016 -0 -2.0956 0.66 -0.3894 4.96962e-016 0 -6.36111e-015 -5.0395 -0.09 2.4971 -9.93923e-017 3.97569e-016 -0 -3.7921 -1.552 1.4806 -8.94531e-016 5.96354e-016 -0 -1.4655 -1.808 0.9609 -3.97569e-016 3.97569e-016 -0 -4.9141 -1.269 0.3592 -9.93923e-017 3.97569e-016 -0 -3.1477 -1.685 0.8462 -8.94531e-016 5.96354e-016 -0 -0.8055 -1.585 0.7955 -3.97569e-016 3.97569e-016 -0 8.367 -8.2066 0.5982 -4.66115 -1.03232 0.120763 2.1923 -43.463 -0.4932 0.00990601 1.55097 0.177175 0.7333 -45.8593 -2.6451 4.65196 -0.54114 -0.255042 -8.367 -8.2066 0.5982 4.66115 -1.03222 -0.120763 -2.1923 -43.463 -0.4931 -0.00990459 1.5509 -0.177176 -0.7333 -45.8593 -2.6451 -4.65196 -0.541171 0.255041 
-0.0362183 68.663 -1.58857 -0 -22.8788 -0 0 -1.186 -1.5018 -0.109273 -0.0556059 -0.0916205 0 9.964 0.2134 -0.218635 -0.111053 -0.183347 0 13.134 -3.2573 -0.218634 -0.111048 -0.183347 0 20.686 -1.6905 -0.00188383 -0.0588033 0.680082 -2.22045e-016 7.238 -0.1237 -0.00161704 -0.234495 0.603394 1.7069 20.075 5.0056 -7.69935 -0.0608333 -1.11009 13.6458 -0.047 -4.849 -4.98154 0.564663 3.19651 28.3255 -0.9759 2.2888 -18.5292 5.21779 11.3597 22.1583 -0.53 10.8316 1.82546 11.7003 1.45649 0.786 0.112 2.5817 4.72114e-015 -3.97569e-016 -7.95139e-016 0.3601 -0.878 4.2331 3.34881e-006 6.75741e-007 1.93699e-006 1.8127 -1.216 2.2227 4.24902e-015 3.97569e-016 -7.95139e-016 0.9571 1.114 1.7695 4.77083e-015 -7.95139e-016 -0 4.1246 0.487 4.1451 1.78906e-015 -7.95139e-016 4.77083e-015 3.4052 -1.454 2.7682 3.34881e-006 6.75741e-007 1.93699e-006 1.4531 -1.795 1.2713 1.3418e-015 3.97569e-016 -1.59028e-015 5.6954 0.21 2.1184 1.78906e-015 -7.95139e-016 4.77083e-015 3.9766 -1.54 2.3863 3.34881e-006 6.75741e-007 1.93699e-006 1.4042 -1.926 1.125 1.3418e-015 3.97569e-016 -1.59028e-015 2.0956 0.66 -0.3894 4.77083e-015 -7.95139e-016 -0 5.0395 -0.09 2.4971 1.78906e-015 -7.95139e-016 4.77083e-015 3.7921 -1.552 1.4806 3.34881e-006 6.75741e-007 1.93699e-006 1.4655 -1.808 0.9609 1.3418e-015 3.97569e-016 -1.59028e-015 4.9141 -1.269 0.3591 1.78906e-015 -7.95139e-016 4.77083e-015 3.1477 -1.685 0.8462 3.34881e-006 6.75741e-007 1.93699e-006 0.8055 -1.585 0.7955 1.3418e-015 3.97569e-016 -1.59028e-015 -1.7069 20.075 5.0056 -7.46853 -0.00984641 -0.15902 -13.6458 -0.047 -4.849 1.8675 11.3456 -4.11686 -28.3255 -0.9759 2.2888 6.17387 8.57732 -5.38083 -22.1583 -0.53 10.8316 3.7998 1.76938 -6.26044 -0.786 0.112 2.5817 -4.41391e-032 -7.95139e-016 -3.18055e-015 -0.3601 -0.878 4.2331 -3.97569e-016 -1.19271e-015 -3.18055e-015 -1.8127 -1.216 2.2227 2.98177e-016 -1.19271e-015 -3.18055e-015 -0.9571 1.114 1.7695 1.98785e-016 0 -0 -4.1246 0.487 4.1451 -1.59028e-015 -3.97569e-016 -0 -3.4052 -1.454 2.7682 -8.94531e-016 -7.95139e-016 -3.18055e-015 -1.4531 -1.795 1.2713 -1.19271e-015 -7.95139e-016 -3.18055e-015 -5.6954 0.21 2.1184 -1.59028e-015 -3.97569e-016 -0 -3.9766 -1.54 2.3863 -8.94531e-016 -7.95139e-016 -3.18055e-015 -1.4042 -1.926 1.125 -1.19271e-015 -7.95139e-016 -3.18055e-015 -2.0956 0.66 -0.3894 1.98785e-016 0 -0 -5.0395 -0.09 2.4971 -1.59028e-015 -3.97569e-016 -0 -3.7921 -1.552 1.4806 -8.94531e-016 -7.95139e-016 -3.18055e-015 -1.4655 -1.808 0.9609 -1.19271e-015 -7.95139e-016 -3.18055e-015 -4.9141 -1.269 0.3592 -1.59028e-015 -3.97569e-016 -0 -3.1477 -1.685 0.8462 -8.94531e-016 -7.95139e-016 -3.18055e-015 -0.8055 -1.585 0.7955 -1.19271e-015 -7.95139e-016 -3.18055e-015 8.367 -8.2066 0.5982 0.11434 -3.34014 2.08555 2.1923 -43.463 -0.4932 -2.88086 8.08497 3.24042 0.7333 -45.8593 -2.6451 4.82045 8.82197 -1.33241 -8.367 -8.2066 0.5982 2.06961 -0.624408 -0.221636 -2.1923 -43.463 -0.4931 0.566064 1.94373 -0.544709 -0.7333 -45.8593 -2.6451 -4.82936 7.91062 1.3096 
-0.0476334 43.9804 -5.59312 -0 -47.2277 -0 0 -1.186 -1.5018 -0.226329 -0.115443 -0.189161 0 9.964 0.2134 -0.45304 -0.23014 -0.378778 2.77556e-017 13.134 -3.2573 -0.45304 -0.23013 -0.378777 1.11022e-016 20.686 -1.6905 0.000938835 -0.11699 1.36222 -2.22045e-016 7.238 -0.1237 0.00680024 -0.469237 1.20744 1.7069 20.075 5.0056 -15.894 -0.124756 -2.28974 13.6458 -0.047 -4.849 -11.9997 1.073 0.470126 28.3255 -0.9759 2.2888 -37.9113 9.51322 7.21514 22.1583 -0.53 10.8316 3.27379 24.3845 2.16919 0.786 0.112 2.5817 5.62714e-008 -1.51973e-006 8.18601e-007 0.3601 -0.878 4.2331 4.61135e-007 5.10297e-008 -1.51487e-006 1.8127 -1.216 2.2227 -2.88113e-006 -2.55455e-006 9.75113e-007 0.9571 1.114 1.7695 -7.95139e-016 -3.18055e-015 -6.36111e-015 4.1246 0.487 4.1451 5.62714e-008 -1.51973e-006 8.18601e-007 3.4052 -1.454 2.7682 4.61135e-007 5.10297e-008 -1.51487e-006 1.4531 -1.795 1.2713 -2.88113e-006 -2.55455e-006 9.75113e-007 5.6954 0.21 2.1184 5.62714e-008 -1.51973e-006 8.18601e-007 3.9766 -1.54 2.3863 4.61135e-007 5.10297e-008 -1.51487e-006 1.4042 -1.926 1.125 -2.88113e-006 -2.55455e-006 9.75113e-007 2.0956 0.66 -0.3894 -7.95139e-016 -3.18055e-015 -6.36111e-015 5.0395 -0.09 2.4971 5.62714e-008 -1.51973e-006 8.18601e-007 3.7921 -1.552 1.4806 4.61135e-007 5.10297e-008 -1.51487e-006 1.4655 -1.808 0.9609 -2.88113e-006 -2.55455e-006 9.75113e-007 4.9141 -1.269 0.3591 5.62714e-008 -1.51973e-006 8.18601e-007 3.1477 -1.685 0.8462 4.61135e-007 5.10297e-008 -1.51487e-006 0.8055 -1.585 0.7955 -2.88113e-006 -2.55455e-006 9.75113e-007 -1.7069 20.075 5.0056 -15.415 -0.0195969 -0.326498 -13.6458 -0.047 -4.849 5.0387 23.3454 -3.03706 -28.3255 -0.9759 2.2888 11.7212 15.177 7.35044 -22.1583 -0.53 10.8316 7.86685 3.63957 -13.0363 -0.786 0.112 2.5817 1.96023e-008 1.27187e-006 5.87314e-007 -0.3601 -0.878 4.2331 1.59853e-006 5.10163e-007 -9.73483e-007 -1.8127 -1.216 2.2227 2.30665e-006 -7.4155e-008 -6.87803e-007 -0.9571 1.114 1.7695 -2.5842e-015 -1.59028e-015 -1.59028e-015 -4.1246 0.487 4.1451 1.96023e-008 1.27187e-006 5.87314e-007 -3.4052 -1.454 2.7682 1.59853e-006 5.10163e-007 -9.73483e-007 -1.4531 -1.795 1.2713 2.30665e-006 -7.4155e-008 -6.87803e-007 -5.6954 0.21 2.1184 1.96023e-008 1.27187e-006 5.87314e-007 -3.9766 -1.54 2.3863 1.59853e-006 5.10163e-007 -9.73483e-007 -1.4042 -1.926 1.125 2.30665e-006 -7.4155e-008 -6.87803e-007 -2.0956 0.66 -0.3894 -2.5842e-015 -1.59028e-015 -1.59028e-015 -5.0395 -0.09 2.4971 1.96023e-008 1.27187e-006 5.87314e-007 -3.7921 -1.552 1.4806 1.59853e-006 5.10163e-007 -9.73483e-007 -1.4655 -1.808 0.9609 2.30665e-006 -7.4155e-008 -6.87803e-007 -4.9141 -1.269 0.3592 1.96023e-008 1.27187e-006 5.87314e-007 -3.1477 -1.685 0.8462 1.59853e-006 5.10163e-007 -9.73483e-007 -0.8055 -1.585 0.7955 2.30665e-006 -7.4155e-008 -6.87803e-007 8.367 -8.2066 0.5982 5.19966 -5.99715 4.17553 2.1923 -43.463 -0.4932 -6.39723 15.5481 6.59528 0.7333 -45.8593 -2.6451 5.25284 18.4551 -2.56635 -8.367 -8.2066 0.5982 -0.708578 -0.422006 -0.32197 -2.1923 -43.463 -0.4931 1.17669 2.74568 -0.979919 -0.7333 -45.8593 -2.6451 -5.35099 16.7406 2.53484 
-0.0338751 19.961 -8.39342 -0 -69.6165 -0 0 -1.186 -1.5018 -0.334062 -0.170739 -0.278382 -1.38778e-017 9.964 0.2134 -0.668955 -0.339853 -0.55776 2.77556e-017 13.134 -3.2573 -0.668955 -0.339847 -0.55776 -4.44089e-016 20.686 -1.6905 0.00196816 -0.176171 2.04268 0 7.238 -0.1237 0.0133659 -0.703389 1.81072 1.7069 20.075 5.0056 -23.4326 -0.18381 -3.37552 13.6458 -0.047 -4.849 -18.4071 1.53382 -2.03791 28.3255 -0.9759 2.2888 -55.5218 12.9849 3.79717 22.1583 -0.53 10.8316 4.46326 36.192 2.04709 0.786 0.112 2.5817 1.08711e-006 -1.18122e-006 -5.69554e-007 0.3601 -0.878 4.2331 -1.32417e-031 4.77083e-015 1.59028e-015 1.8127 -1.216 2.2227 1.08711e-006 -1.18122e-006 -5.69554e-007 0.9571 1.114 1.7695 3.18055e-015 7.95139e-015 -0 4.1246 0.487 4.1451 1.08711e-006 -1.18122e-006 -5.69554e-007 3.4052 -1.454 2.7682 3.18055e-015 7.95139e-016 -3.18055e-015 1.4531 -1.795 1.2713 1.08711e-006 -1.18122e-006 -5.69554e-007 5.6954 0.21 2.1184 1.08711e-006 -1.18122e-006 -5.69554e-007 3.9766 -1.54 2.3863 3.18055e-015 7.95139e-016 -3.18055e-015 1.4042 -1.926 1.125 1.08711e-006 -1.18122e-006 -5.69554e-007 2.0956 0.66 -0.3894 3.18055e-015 7.95139e-015 -0 5.0395 -0.09 2.4971 1.08711e-006 -1.18122e-006 -5.69554e-007 3.7921 -1.552 1.4806 3.18055e-015 7.95139e-016 -3.18055e-015 1.4655 -1.808 0.9609 1.08711e-006 -1.18122e-006 -5.69554e-007 4.9141 -1.269 0.3591 1.08711e-006 -1.18122e-006 -5.69554e-007 3.1477 -1.685 0.8462 3.18055e-015 7.95139e-016 -3.18055e-015 0.8055 -1.585 0.7955 1.08711e-006 -1.18122e-006 -5.69554e-007 -1.7069 20.075 5.0056 -22.7231 -0.0289577 -0.481576 -13.6458 -0.047 -4.849 7.53214 34.3642 -1.79872 -28.3255 -0.9759 2.2888 14.497 19.313 19.7255 -22.1583 -0.53 10.8316 11.6328 5.33992 -19.3714 -0.786 0.112 2.5817 -1.98785e-016 0 7.95139e-016 -0.3601 -0.878 4.2331 -1.98785e-016 -1.59028e-015 7.95139e-016 -1.8127 -1.216 2.2227 6.95746e-015 1.59028e-015 2.38542e-015 -0.9571 1.114 1.7695 2.78299e-015 0 -7.95139e-016 -4.1246 0.487 4.1451 1.19271e-015 3.18055e-015 7.95139e-015 -3.4052 -1.454 2.7682 -4.17448e-015 -3.18055e-015 2.38542e-015 -1.4531 -1.795 1.2713 -5.96354e-016 -3.18055e-015 3.18055e-015 -5.6954 0.21 2.1184 1.19271e-015 3.18055e-015 7.95139e-015 -3.9766 -1.54 2.3863 -4.17448e-015 -3.18055e-015 2.38542e-015 -1.4042 -1.926 1.125 -5.96354e-016 -3.18055e-015 3.18055e-015 -2.0956 0.66 -0.3894 2.78299e-015 0 -7.95139e-016 -5.0395 -0.09 2.4971 1.19271e-015 3.18055e-015 7.95139e-015 -3.7921 -1.552 1.4806 -4.17448e-015 -3.18055e-015 2.38542e-015 -1.4655 -1.808 0.9609 -5.96354e-016 -3.18055e-015 3.18055e-015 -4.9141 -1.269 0.3592 1.19271e-015 3.18055e-015 7.95139e-015 -3.1477 -1.685 0.8462 -4.17448e-015 -3.18055e-015 2.38542e-015 -0.8055 -1.585 0.7955 -5.96354e-016 -3.18055e-015 3.18055e-015 8.367 -8.2066 0.5982 9.89824 -8.9514 6.16606 2.1923 -43.463 -0.4932 -9.99535 23.547 9.80793 0.7333 -45.8593 -2.6451 5.745 26.6559 -3.78666 -8.367 -8.2066 0.5982 -3.27706 0.024501 -0.420411 -2.1923 -43.463 -0.4931 1.73584 3.00268 -1.37766 -0.7333 -45.8593 -2.6451 -6.20316 25.0583 3.85695 
